<?xml version="1.0" standalone="no"?>
<!DOCTYPE svg PUBLIC "-//W3C//DTD SVG 20010904//EN"
 "http://www.w3.org/TR/2001/REC-SVG-20010904/DTD/svg10.dtd">
<svg version="1.0" xmlns="http://www.w3.org/2000/svg"
 width="285.000000pt" height="285.000000pt" viewBox="0 0 285.000000 285.000000"
 preserveAspectRatio="xMidYMid meet">
<metadata>
Created by potrace 1.14, written by Peter Selinger 2001-2017
</metadata>
<g transform="translate(0.000000,285.000000) scale(0.100000,-0.100000)"
fill="#000000" stroke="none">
<path d="M0 1425 l0 -1425 1425 0 1425 0 0 1425 0 1425 -1425 0 -1425 0 0
-1425z m537 1020 c65 -27 135 -90 298 -269 88 -97 164 -176 169 -176 5 0 166
57 358 126 192 69 351 124 352 122 12 -14 36 -111 30 -118 -5 -5 -119 -92
-254 -195 -135 -102 -245 -190 -245 -194 0 -4 49 -62 109 -128 l109 -120 114
30 114 30 39 -38 c22 -22 40 -42 40 -46 0 -3 -58 -43 -129 -88 l-129 -82 -84
-130 c-45 -71 -85 -129 -88 -129 -3 0 -24 18 -45 40 l-39 40 28 109 c16 60 27
113 25 118 -3 7 -152 144 -225 206 -21 17 -23 14 -219 -238 -173 -224 -200
-255 -219 -249 -76 24 -91 32 -88 48 2 9 56 162 122 340 65 178 120 330 122
339 2 9 -64 76 -172 174 -96 88 -194 181 -217 207 -79 89 -91 171 -36 237 43
51 94 61 160 34z m941 -137 l-3 -53 -85 -7 c-47 -4 -124 -19 -173 -33 -48 -14
-89 -25 -92 -25 -7 0 -35 69 -35 85 0 28 217 82 333 84 l58 1 -3 -52z m492
-69 c455 -247 658 -771 486 -1253 -141 -394 -504 -661 -931 -682 -327 -17
-651 128 -857 385 -59 74 -156 236 -146 246 2 2 24 12 49 23 l45 20 37 -72
c105 -204 301 -371 522 -445 124 -41 219 -54 350 -48 244 12 459 109 626 283
81 85 118 140 169 246 207 433 39 953 -385 1193 -44 25 -84 46 -89 48 -12 4
26 97 39 97 6 0 44 -19 85 -41z m-116 -246 c50 -27 97 -64 161 -128 153 -153
214 -289 223 -498 5 -135 -6 -208 -49 -316 -159 -400 -630 -589 -1025 -411
-91 41 -171 99 -246 178 -58 61 -130 170 -140 210 -2 8 16 21 44 32 l46 19 38
-64 c83 -142 216 -252 367 -302 71 -23 98 -27 207 -27 111 0 134 3 205 28 254
88 416 293 449 564 9 74 -10 204 -44 289 -53 137 -168 268 -296 335 l-62 33
20 48 c11 26 23 47 25 47 3 0 37 -17 77 -37z m-283 -183 c227 -43 398 -248
399 -475 0 -294 -269 -529 -558 -486 -140 21 -265 99 -340 211 -46 68 -82 170
-82 231 l0 39 54 0 53 0 6 -56 c19 -186 211 -338 403 -321 141 13 255 91 316
215 30 61 33 74 33 162 0 83 -4 103 -28 156 -53 115 -177 207 -296 221 l-51 6
0 53 c0 61 0 61 91 44z m-1001 -106 c22 -9 40 -20 40 -25 0 -5 -11 -48 -25
-95 -14 -48 -28 -124 -32 -170 l-6 -84 -53 0 -54 0 0 43 c0 93 60 347 81 347
5 0 27 -7 49 -16z"/>
</g>
</svg>
